<mxfile host="app.diagrams.net" modified="2021-11-17T04:05:13.405Z" agent="5.0 (Macintosh; Intel Mac OS X 10_14_0) AppleWebKit/537.36 (KHTML, like Gecko) Chrome/95.0.4638.69 Safari/537.36" etag="3ebdf8skvGGWKoeunhSf" version="15.7.4" type="github">
  <diagram id="prtHgNgQTEPvFCAcTncT" name="Page-1">
    <mxGraphModel dx="946" dy="589" grid="1" gridSize="10" guides="1" tooltips="1" connect="1" arrows="1" fold="1" page="1" pageScale="1" pageWidth="827" pageHeight="1169" math="0" shadow="0">
      <root>
        <mxCell id="0" />
        <mxCell id="1" parent="0" />
        <mxCell id="eEtC7sX34TED1RY3KN9g-7" value="Orgnazation" style="swimlane;" vertex="1" parent="1">
          <mxGeometry x="280" y="420" width="460" height="180" as="geometry" />
        </mxCell>
        <mxCell id="eEtC7sX34TED1RY3KN9g-8" value="Hospital / Healthcare Institution node" style="rounded=0;whiteSpace=wrap;html=1;" vertex="1" parent="eEtC7sX34TED1RY3KN9g-7">
          <mxGeometry x="170" y="40" width="120" height="50" as="geometry" />
        </mxCell>
        <mxCell id="eEtC7sX34TED1RY3KN9g-10" value="User node" style="rounded=0;whiteSpace=wrap;html=1;" vertex="1" parent="eEtC7sX34TED1RY3KN9g-7">
          <mxGeometry x="20" y="130" width="110" height="35" as="geometry" />
        </mxCell>
        <mxCell id="eEtC7sX34TED1RY3KN9g-14" value="User node" style="rounded=0;whiteSpace=wrap;html=1;" vertex="1" parent="eEtC7sX34TED1RY3KN9g-7">
          <mxGeometry x="175" y="130" width="110" height="35" as="geometry" />
        </mxCell>
        <mxCell id="eEtC7sX34TED1RY3KN9g-15" value="User node" style="rounded=0;whiteSpace=wrap;html=1;" vertex="1" parent="eEtC7sX34TED1RY3KN9g-7">
          <mxGeometry x="330" y="125" width="110" height="35" as="geometry" />
        </mxCell>
        <mxCell id="eEtC7sX34TED1RY3KN9g-16" value="" style="endArrow=classic;startArrow=classic;html=1;rounded=0;" edge="1" parent="eEtC7sX34TED1RY3KN9g-7">
          <mxGeometry width="50" height="50" relative="1" as="geometry">
            <mxPoint x="285" y="147" as="sourcePoint" />
            <mxPoint x="325" y="147" as="targetPoint" />
          </mxGeometry>
        </mxCell>
        <mxCell id="eEtC7sX34TED1RY3KN9g-18" value="" style="endArrow=classic;startArrow=classic;html=1;rounded=0;" edge="1" parent="eEtC7sX34TED1RY3KN9g-7">
          <mxGeometry width="50" height="50" relative="1" as="geometry">
            <mxPoint x="135" y="147" as="sourcePoint" />
            <mxPoint x="175" y="147" as="targetPoint" />
          </mxGeometry>
        </mxCell>
        <mxCell id="eEtC7sX34TED1RY3KN9g-19" value="" style="endArrow=classic;startArrow=classic;html=1;rounded=0;entryX=0.082;entryY=-0.057;entryDx=0;entryDy=0;entryPerimeter=0;" edge="1" parent="eEtC7sX34TED1RY3KN9g-7" target="eEtC7sX34TED1RY3KN9g-15">
          <mxGeometry width="50" height="50" relative="1" as="geometry">
            <mxPoint x="285" y="90" as="sourcePoint" />
            <mxPoint x="325" y="110" as="targetPoint" />
          </mxGeometry>
        </mxCell>
        <mxCell id="eEtC7sX34TED1RY3KN9g-20" value="" style="endArrow=classic;startArrow=classic;html=1;rounded=0;entryX=0.082;entryY=-0.057;entryDx=0;entryDy=0;entryPerimeter=0;exitX=0;exitY=1;exitDx=0;exitDy=0;" edge="1" parent="eEtC7sX34TED1RY3KN9g-7" source="eEtC7sX34TED1RY3KN9g-8">
          <mxGeometry width="50" height="50" relative="1" as="geometry">
            <mxPoint x="70" y="96.99000000000001" as="sourcePoint" />
            <mxPoint x="124.01999999999998" y="129.99500000000012" as="targetPoint" />
          </mxGeometry>
        </mxCell>
        <mxCell id="eEtC7sX34TED1RY3KN9g-21" value="Orgnazation" style="swimlane;" vertex="1" parent="1">
          <mxGeometry x="280" y="200" width="460" height="180" as="geometry" />
        </mxCell>
        <mxCell id="eEtC7sX34TED1RY3KN9g-22" value="Hospital / Healthcare Institution node" style="rounded=0;whiteSpace=wrap;html=1;" vertex="1" parent="eEtC7sX34TED1RY3KN9g-21">
          <mxGeometry x="170" y="40" width="120" height="50" as="geometry" />
        </mxCell>
        <mxCell id="eEtC7sX34TED1RY3KN9g-23" value="User node" style="rounded=0;whiteSpace=wrap;html=1;" vertex="1" parent="eEtC7sX34TED1RY3KN9g-21">
          <mxGeometry x="20" y="130" width="110" height="35" as="geometry" />
        </mxCell>
        <mxCell id="eEtC7sX34TED1RY3KN9g-24" value="User node" style="rounded=0;whiteSpace=wrap;html=1;" vertex="1" parent="eEtC7sX34TED1RY3KN9g-21">
          <mxGeometry x="175" y="130" width="110" height="35" as="geometry" />
        </mxCell>
        <mxCell id="eEtC7sX34TED1RY3KN9g-25" value="User node" style="rounded=0;whiteSpace=wrap;html=1;" vertex="1" parent="eEtC7sX34TED1RY3KN9g-21">
          <mxGeometry x="330" y="125" width="110" height="35" as="geometry" />
        </mxCell>
        <mxCell id="eEtC7sX34TED1RY3KN9g-26" value="" style="endArrow=classic;startArrow=classic;html=1;rounded=0;" edge="1" parent="eEtC7sX34TED1RY3KN9g-21">
          <mxGeometry width="50" height="50" relative="1" as="geometry">
            <mxPoint x="285" y="147" as="sourcePoint" />
            <mxPoint x="325" y="147" as="targetPoint" />
          </mxGeometry>
        </mxCell>
        <mxCell id="eEtC7sX34TED1RY3KN9g-27" value="" style="endArrow=classic;startArrow=classic;html=1;rounded=0;" edge="1" parent="eEtC7sX34TED1RY3KN9g-21">
          <mxGeometry width="50" height="50" relative="1" as="geometry">
            <mxPoint x="135" y="147" as="sourcePoint" />
            <mxPoint x="175" y="147" as="targetPoint" />
          </mxGeometry>
        </mxCell>
        <mxCell id="eEtC7sX34TED1RY3KN9g-28" value="" style="endArrow=classic;startArrow=classic;html=1;rounded=0;entryX=0.082;entryY=-0.057;entryDx=0;entryDy=0;entryPerimeter=0;" edge="1" parent="eEtC7sX34TED1RY3KN9g-21" target="eEtC7sX34TED1RY3KN9g-25">
          <mxGeometry width="50" height="50" relative="1" as="geometry">
            <mxPoint x="285" y="90" as="sourcePoint" />
            <mxPoint x="325" y="110" as="targetPoint" />
          </mxGeometry>
        </mxCell>
        <mxCell id="eEtC7sX34TED1RY3KN9g-29" value="" style="endArrow=classic;startArrow=classic;html=1;rounded=0;entryX=0.082;entryY=-0.057;entryDx=0;entryDy=0;entryPerimeter=0;exitX=0;exitY=1;exitDx=0;exitDy=0;" edge="1" parent="eEtC7sX34TED1RY3KN9g-21" source="eEtC7sX34TED1RY3KN9g-22">
          <mxGeometry width="50" height="50" relative="1" as="geometry">
            <mxPoint x="70" y="96.99000000000001" as="sourcePoint" />
            <mxPoint x="124.01999999999998" y="129.99500000000012" as="targetPoint" />
          </mxGeometry>
        </mxCell>
        <mxCell id="eEtC7sX34TED1RY3KN9g-30" value="Consensus Set" style="swimlane;" vertex="1" parent="1">
          <mxGeometry x="20" y="280" width="170" height="120" as="geometry" />
        </mxCell>
        <mxCell id="eEtC7sX34TED1RY3KN9g-31" value="" style="rounded=0;whiteSpace=wrap;html=1;" vertex="1" parent="eEtC7sX34TED1RY3KN9g-30">
          <mxGeometry x="30" y="50" width="100" height="40" as="geometry" />
        </mxCell>
        <mxCell id="eEtC7sX34TED1RY3KN9g-32" value="Order node" style="rounded=0;whiteSpace=wrap;html=1;shadow=0;glass=0;sketch=0;" vertex="1" parent="eEtC7sX34TED1RY3KN9g-30">
          <mxGeometry x="40" y="60" width="110" height="40" as="geometry" />
        </mxCell>
        <mxCell id="eEtC7sX34TED1RY3KN9g-34" value="" style="endArrow=classic;html=1;rounded=0;entryX=0;entryY=0.5;entryDx=0;entryDy=0;" edge="1" parent="eEtC7sX34TED1RY3KN9g-30" target="eEtC7sX34TED1RY3KN9g-22">
          <mxGeometry width="50" height="50" relative="1" as="geometry">
            <mxPoint x="150" y="70" as="sourcePoint" />
            <mxPoint x="200" y="20" as="targetPoint" />
          </mxGeometry>
        </mxCell>
        <mxCell id="eEtC7sX34TED1RY3KN9g-35" value="" style="endArrow=classic;html=1;rounded=0;entryX=0;entryY=0.25;entryDx=0;entryDy=0;" edge="1" parent="1" target="eEtC7sX34TED1RY3KN9g-8">
          <mxGeometry width="50" height="50" relative="1" as="geometry">
            <mxPoint x="160" y="380" as="sourcePoint" />
            <mxPoint x="440" y="340" as="targetPoint" />
          </mxGeometry>
        </mxCell>
        <mxCell id="eEtC7sX34TED1RY3KN9g-37" value="Orgnazation" style="swimlane;" vertex="1" parent="1">
          <mxGeometry x="10" y="630" width="460" height="180" as="geometry" />
        </mxCell>
        <mxCell id="eEtC7sX34TED1RY3KN9g-38" value="Hospital / Healthcare Institution node" style="rounded=0;whiteSpace=wrap;html=1;" vertex="1" parent="eEtC7sX34TED1RY3KN9g-37">
          <mxGeometry x="170" y="40" width="120" height="50" as="geometry" />
        </mxCell>
        <mxCell id="eEtC7sX34TED1RY3KN9g-42" value="" style="endArrow=classic;startArrow=classic;html=1;rounded=0;entryX=0;entryY=0.64;entryDx=0;entryDy=0;entryPerimeter=0;" edge="1" parent="eEtC7sX34TED1RY3KN9g-37" target="eEtC7sX34TED1RY3KN9g-48">
          <mxGeometry width="50" height="50" relative="1" as="geometry">
            <mxPoint x="290" y="142" as="sourcePoint" />
            <mxPoint x="330" y="142" as="targetPoint" />
          </mxGeometry>
        </mxCell>
        <mxCell id="eEtC7sX34TED1RY3KN9g-43" value="" style="endArrow=classic;startArrow=classic;html=1;rounded=0;entryX=0;entryY=0.5;entryDx=0;entryDy=0;" edge="1" parent="eEtC7sX34TED1RY3KN9g-37" target="eEtC7sX34TED1RY3KN9g-47">
          <mxGeometry width="50" height="50" relative="1" as="geometry">
            <mxPoint x="120" y="143" as="sourcePoint" />
            <mxPoint x="170" y="142" as="targetPoint" />
          </mxGeometry>
        </mxCell>
        <mxCell id="eEtC7sX34TED1RY3KN9g-44" value="" style="endArrow=classic;startArrow=classic;html=1;rounded=0;entryX=0.082;entryY=-0.057;entryDx=0;entryDy=0;entryPerimeter=0;" edge="1" parent="eEtC7sX34TED1RY3KN9g-37">
          <mxGeometry width="50" height="50" relative="1" as="geometry">
            <mxPoint x="285" y="90" as="sourcePoint" />
            <mxPoint x="339.02" y="123.00500000000011" as="targetPoint" />
          </mxGeometry>
        </mxCell>
        <mxCell id="eEtC7sX34TED1RY3KN9g-45" value="" style="endArrow=classic;startArrow=classic;html=1;rounded=0;entryX=0.082;entryY=-0.057;entryDx=0;entryDy=0;entryPerimeter=0;exitX=0;exitY=1;exitDx=0;exitDy=0;" edge="1" parent="eEtC7sX34TED1RY3KN9g-37" source="eEtC7sX34TED1RY3KN9g-38">
          <mxGeometry width="50" height="50" relative="1" as="geometry">
            <mxPoint x="70" y="96.99000000000001" as="sourcePoint" />
            <mxPoint x="124.01999999999998" y="129.99500000000012" as="targetPoint" />
          </mxGeometry>
        </mxCell>
        <mxCell id="eEtC7sX34TED1RY3KN9g-46" value="Hospital / Healthcare Institution node" style="rounded=0;whiteSpace=wrap;html=1;" vertex="1" parent="eEtC7sX34TED1RY3KN9g-37">
          <mxGeometry x="10" y="110" width="110" height="50" as="geometry" />
        </mxCell>
        <mxCell id="eEtC7sX34TED1RY3KN9g-47" value="Hospital / Healthcare Institution node" style="rounded=0;whiteSpace=wrap;html=1;" vertex="1" parent="eEtC7sX34TED1RY3KN9g-37">
          <mxGeometry x="170" y="117.5" width="120" height="50" as="geometry" />
        </mxCell>
        <mxCell id="eEtC7sX34TED1RY3KN9g-48" value="Hospital / Healthcare Institution node" style="rounded=0;whiteSpace=wrap;html=1;" vertex="1" parent="eEtC7sX34TED1RY3KN9g-37">
          <mxGeometry x="340" y="110" width="120" height="50" as="geometry" />
        </mxCell>
        <mxCell id="eEtC7sX34TED1RY3KN9g-51" value="" style="endArrow=classic;html=1;rounded=0;exitX=0.618;exitY=1.025;exitDx=0;exitDy=0;exitPerimeter=0;" edge="1" parent="1" source="eEtC7sX34TED1RY3KN9g-32" target="eEtC7sX34TED1RY3KN9g-38">
          <mxGeometry width="50" height="50" relative="1" as="geometry">
            <mxPoint x="390" y="620" as="sourcePoint" />
            <mxPoint x="440" y="730" as="targetPoint" />
          </mxGeometry>
        </mxCell>
      </root>
    </mxGraphModel>
  </diagram>
</mxfile>
